<svg width="41" height="40" viewBox="0 0 41 40" fill="none" xmlns="http://www.w3.org/2000/svg">
<g clip-path="url(#clip0_5003_154)">
<path d="M0.5 8V32C0.5 36.4187 4.08133 40 8.5 40H32.5C36.9187 40 40.5 36.4187 40.5 32V8C40.5 3.58133 36.9187 0 32.5 0H8.5C4.08133 0 0.5 3.58133 0.5 8ZM32.5 37.3333H8.5C5.55467 37.3333 3.16667 34.9453 3.16667 32V8C3.16667 5.05467 5.55467 2.66667 8.5 2.66667H32.5C35.4453 2.66667 37.8333 5.05467 37.8333 8V32C37.8333 34.9453 35.4453 37.3333 32.5 37.3333Z" fill="white"/>
<path d="M8.65368 29.0825H12.7003L12.3243 30.1972H11.2657V34.4599H9.96568V30.1972H8.65234V29.0825H8.65368ZM19.383 29.0825V30.1972H20.6963V34.4599H22.0003V30.1972H23.059L23.435 29.0825H19.3843H19.383ZM13.5817 30.3492C13.931 30.3492 14.2123 30.0679 14.2123 29.7185C14.2123 29.3692 13.931 29.0879 13.5817 29.0879C13.2323 29.0879 12.951 29.3692 12.951 29.7185C12.951 30.0679 13.2323 30.3492 13.5817 30.3492ZM12.951 34.4559H14.2297V30.7932H12.951V34.4559ZM18.8257 30.3185H17.331L16.0443 31.6052V29.0825H14.775L14.771 34.4505H16.0537V33.0505L16.451 32.6879L17.695 34.4505H19.0643L17.263 31.8759L18.827 30.3172L18.8257 30.3185ZM30.5457 31.8825L32.1097 30.3185H30.615L29.3283 31.6052V29.0825H28.059L28.051 34.4559H29.3337V33.0559L29.735 32.6932L30.979 34.4559H32.3483L30.547 31.8812L30.5457 31.8825ZM27.527 32.2799C27.527 33.4932 26.5297 34.4785 25.299 34.4785C24.0683 34.4785 23.071 33.4932 23.071 32.2799C23.071 31.0665 24.0683 30.0812 25.299 30.0812C26.5297 30.0812 27.527 31.0665 27.527 32.2799ZM26.391 32.2799C26.391 31.6759 25.903 31.1865 25.2977 31.1865C24.6923 31.1865 24.2043 31.6745 24.2043 32.2799C24.2043 32.8852 24.6923 33.3732 25.2977 33.3732C25.903 33.3732 26.391 32.8852 26.391 32.2799Z" fill="white"/>
<path d="M28.0532 9.94925C27.9079 9.87459 27.7652 9.79192 27.6279 9.70125C27.2279 9.43725 26.8612 9.12525 26.5359 8.77458C25.7225 7.84258 25.4185 6.89859 25.3065 6.23725H25.3105C25.2172 5.68792 25.2559 5.33325 25.2612 5.33325H21.5532V19.6693C21.5532 19.8613 21.5532 20.0519 21.5452 20.2399C21.5452 20.2639 21.5425 20.2853 21.5412 20.3106C21.5412 20.3213 21.5412 20.3319 21.5385 20.3426V20.3506C21.4585 21.3946 20.8652 22.3319 19.9545 22.8493C19.4865 23.1146 18.9585 23.2546 18.4212 23.2546C16.6932 23.2546 15.2932 21.8466 15.2932 20.1066C15.2932 18.3666 16.6932 16.9586 18.4212 16.9586C18.7479 16.9586 19.0732 17.0093 19.3839 17.1106L19.3879 13.3359C17.4799 13.0893 15.5559 13.6519 14.0812 14.8879C13.4425 15.4426 12.9052 16.1053 12.4932 16.8453C12.3372 17.1146 11.7465 18.1999 11.6745 19.9586C11.6292 20.9573 11.9292 21.9919 12.0732 22.4199V22.4293C12.1625 22.6813 12.5119 23.5399 13.0799 24.2653C13.5385 24.8466 14.0785 25.3573 14.6852 25.7799V25.7706L14.6945 25.7799C16.4892 26.9999 18.4799 26.9199 18.4799 26.9199C18.8239 26.9066 19.9785 26.9199 21.2892 26.2986C22.7425 25.6106 23.5705 24.5839 23.5705 24.5839C24.0985 23.9706 24.5199 23.2719 24.8132 22.5186C25.1492 21.6373 25.2612 20.5786 25.2612 20.1559V12.5506C25.3065 12.5773 25.9052 12.9733 25.9052 12.9733C25.9052 12.9733 26.7679 13.5266 28.1145 13.8866C29.0799 14.1426 30.3825 14.1973 30.3825 14.1973V10.5173C29.9265 10.5666 29.0012 10.4226 28.0519 9.95058L28.0532 9.94925Z" fill="white"/>
</g>
<defs>
<clipPath id="clip0_5003_154">
<rect width="40" height="40" fill="white" transform="translate(0.5)"/>
</clipPath>
</defs>
</svg>
