<svg width="40" height="40" viewBox="0 0 40 40" fill="none" xmlns="http://www.w3.org/2000/svg">
<g clip-path="url(#clip0_5003_168)">
<path d="M0 8V32C0 36.4187 3.58133 40 8 40H32C36.4187 40 40 36.4187 40 32V8C40 3.58133 36.4187 0 32 0H8C3.58133 0 0 3.58133 0 8ZM32 37.3333H8C5.05467 37.3333 2.66667 34.9453 2.66667 32V8C2.66667 5.05467 5.05467 2.66667 8 2.66667H32C34.9453 2.66667 37.3333 5.05467 37.3333 8V32C37.3333 34.9453 34.9453 37.3333 32 37.3333Z" fill="white"/>
<path d="M29.1344 20.0013L14.2891 28.576V11.4307L29.1344 20.0013Z" fill="white"/>
</g>
<defs>
<clipPath id="clip0_5003_168">
<rect width="40" height="40" fill="white"/>
</clipPath>
</defs>
</svg>
