<svg width="41" height="40" viewBox="0 0 41 40" fill="none" xmlns="http://www.w3.org/2000/svg">
<g clip-path="url(#clip0_5003_147)">
<path d="M0.75 8V32C0.75 36.4187 4.33133 40 8.75 40H32.75C37.1687 40 40.75 36.4187 40.75 32V8C40.75 3.58133 37.1687 0 32.75 0H8.75C4.33133 0 0.75 3.58133 0.75 8ZM32.75 37.3333H8.75C5.80467 37.3333 3.41667 34.9453 3.41667 32V8C3.41667 5.05467 5.80467 2.66667 8.75 2.66667H32.75C35.6953 2.66667 38.0833 5.05467 38.0833 8V32C38.0833 34.9453 35.6953 37.3333 32.75 37.3333Z" fill="white"/>
<path d="M6.31787 14.7266C9.05787 14.7266 11.7992 14.7266 14.5392 14.7266C14.5392 15.0332 14.5459 15.3439 14.4659 15.6426C14.4005 15.8812 14.2925 16.1092 14.1432 16.3052C13.9099 16.5639 13.6979 16.8399 13.4805 17.1119C11.8392 19.1692 10.1992 21.2266 8.55787 23.2839C10.5525 23.2839 12.5459 23.2839 14.5405 23.2839C14.5392 23.6132 14.5445 23.9439 14.5379 24.2732C14.5205 24.6252 14.2005 24.9266 13.8485 24.9252C11.2605 24.9279 8.67254 24.9252 6.08454 24.9252C6.08987 24.6212 6.06454 24.3132 6.12987 24.0132C6.18454 23.7599 6.31654 23.5279 6.48321 23.3319C8.32987 21.0492 10.1752 18.7666 12.0219 16.4852C10.1205 16.4852 8.22054 16.4852 6.31921 16.4852C6.31921 15.8999 6.31921 15.3132 6.31921 14.7279L6.31787 14.7266Z" fill="white"/>
<path d="M24.4047 14.7266C24.9927 14.7266 25.5794 14.7266 26.166 14.7266C26.166 18.1266 26.166 21.5266 26.166 24.9266C25.7647 24.9252 25.362 24.9292 24.9607 24.9239C24.6554 24.9159 24.3927 24.6346 24.4047 24.3279V14.7266Z" fill="white"/>
<path d="M31.1902 16.9412C32.1915 16.8919 33.2062 17.2319 33.9715 17.8799C34.6848 18.4759 35.1835 19.3239 35.3488 20.2386C35.5222 21.1719 35.3542 22.1666 34.8755 22.9866C34.3928 23.8252 33.5982 24.4799 32.6808 24.7892C31.6862 25.1306 30.5595 25.0639 29.6142 24.6026C28.7115 24.1679 27.9822 23.3852 27.6168 22.4532C27.2155 21.4466 27.2448 20.2759 27.7008 19.2932C28.0742 18.4746 28.7302 17.7906 29.5315 17.3812C30.0448 17.1172 30.6142 16.9666 31.1915 16.9412H31.1902ZM31.0515 18.6186C30.2182 18.7239 29.4688 19.3119 29.1662 20.0946C28.9422 20.6519 28.9435 21.2959 29.1688 21.8519C29.3528 22.3146 29.6888 22.7159 30.1115 22.9799C30.5542 23.2599 31.0915 23.3839 31.6115 23.3319C32.0342 23.2919 32.4448 23.1332 32.7862 22.8812C33.2062 22.5732 33.5208 22.1239 33.6635 21.6226C33.8182 21.0839 33.7755 20.4906 33.5395 19.9826C33.3128 19.4852 32.9075 19.0706 32.4142 18.8346C31.9955 18.6292 31.5142 18.5559 31.0528 18.6186H31.0515Z" fill="white"/>
<path d="M17.3343 17.3373C18.0329 17.0213 18.8223 16.916 19.5796 17.0293C20.2169 17.124 20.8289 17.376 21.3489 17.756C21.3489 17.5733 21.3489 17.3893 21.3489 17.2066C21.8969 17.2066 22.4463 17.2066 22.9943 17.2066C22.9943 19.78 22.9943 22.3533 22.9943 24.9253C22.6623 24.9226 22.3289 24.9293 21.9956 24.9226C21.6409 24.9026 21.3449 24.58 21.3449 24.2266C20.5063 24.844 19.4196 25.1106 18.3903 24.9546C17.5169 24.8293 16.6916 24.4013 16.0809 23.7626C15.4916 23.1533 15.1049 22.3506 14.9983 21.508C14.8943 20.7133 15.0343 19.888 15.4009 19.1733C15.8116 18.3653 16.5049 17.7053 17.3316 17.336L17.3343 17.3373ZM18.8383 18.64C18.0023 18.6813 17.2169 19.208 16.8556 19.9626C16.5929 20.4973 16.5476 21.132 16.7276 21.7C16.8729 22.1626 17.1649 22.576 17.5516 22.8693C17.9476 23.172 18.4423 23.3426 18.9409 23.3493C19.4476 23.36 19.9569 23.2013 20.3663 22.9013C20.7876 22.5986 21.1036 22.1506 21.2476 21.652C21.3903 21.1626 21.3703 20.6266 21.1863 20.152C21.0196 19.7173 20.7223 19.336 20.3409 19.0693C19.9076 18.7613 19.3676 18.6093 18.8369 18.6426L18.8383 18.64Z" fill="white"/>
</g>
<defs>
<clipPath id="clip0_5003_147">
<rect width="40" height="40" fill="white" transform="translate(0.75)"/>
</clipPath>
</defs>
</svg>
